<mxfile host="app.diagrams.net" modified="2024-10-30T02:08:26.716Z" agent="Mozilla/5.0 (Windows NT 10.0; Win64; x64) AppleWebKit/537.36 (KHTML, like Gecko) Chrome/129.0.0.0 Safari/537.36" version="24.4.10" etag="ukKGdIQv_Gbp3r8iauD8" type="github">
  <diagram name="第 1 页" id="Rd3MXlwxHgtlzR_X8sdf">
    <mxGraphModel>
      <root>
        <mxCell id="0" />
        <mxCell id="1" parent="0" />
      </root>
    </mxGraphModel>
  </diagram>
</mxfile>
